# xmcd CD database file
#
# Track frame offsets:
#	150
#	13430
#	26595
#	41442
#	57567
#	73090
#	86025
#	106225
#	118120
#	131902
#
# Disc length: 1915 seconds
#
# Revision: 2
# Processed by: cddbd v1.5.2PL0 Copyright (c) Steve Scherf et al.
# Submitted via: CDex 1.50
#
DISCID=9207790a
DTITLE=Flying  W Wranglers - Cowboys For Jesus
DYEAR=1993
DGENRE=Country
TTITLE0=Range In The Sky
TTITLE1=Circuit Ridin' Preacher
TTITLE2=Church Out On The Plains
TTITLE3=The Last Cattle Call
TTITLE4=When The Cowboys Sing Again
TTITLE5=I'm Never Alone On The Lone Prairie
TTITLE6=Ayudanos Dios
TTITLE7=Cowboys For Jesus
TTITLE8=It Was The Lord
TTITLE9=When The Roll Is Called Up Yonder
EXTD=YEAR: 1993
EXTT0=
EXTT1=
EXTT2=
EXTT3=
EXTT4=
EXTT5=
EXTT6=
EXTT7=
EXTT8=
EXTT9=
PLAYORDER=
